<svg width="1265" height="808" viewBox="0 0 1265 808" fill="none" xmlns="http://www.w3.org/2000/svg">
<path d="M384.811 140.621H309.878V116.874C309.878 97.0487 326.652 80.9775 347.344 80.9775C368.036 80.9775 384.81 97.0487 384.81 116.874V140.621H384.811Z" fill="white" stroke="#263238" stroke-miterlimit="10" stroke-linecap="round" stroke-linejoin="round"/>
<path d="M347.345 80.9777V41.2144" stroke="#263238" stroke-miterlimit="10" stroke-linecap="round" stroke-linejoin="round"/>
<path d="M927.786 140.621H852.853V116.874C852.853 97.0487 869.627 80.9775 890.319 80.9775C911.011 80.9775 927.785 97.0487 927.785 116.874L927.786 140.621Z" fill="white" stroke="#263238" stroke-miterlimit="10" stroke-linecap="round" stroke-linejoin="round"/>
<path d="M890.32 80.9777V41.2144" stroke="#263238" stroke-miterlimit="10" stroke-linecap="round" stroke-linejoin="round"/>
<path d="M1166.39 133.498H957.536V378.063H1166.39V133.498Z" fill="white" stroke="#263238" stroke-miterlimit="10" stroke-linecap="round" stroke-linejoin="round"/>
<path d="M1166.38 133.504H957.541V378.07H1166.38V133.504Z" fill="white" stroke="#263238" stroke-miterlimit="10" stroke-linecap="round" stroke-linejoin="round"/>
<path d="M1166.38 133.504V228.105C1154.53 239.352 1139.92 249.888 1122.61 256.595C1068.44 277.587 998.105 254.381 1038.45 180.384C1048.67 161.655 1056.01 146.174 1061.27 133.504H1166.38Z" fill="white" stroke="#263238" stroke-miterlimit="10" stroke-linecap="round" stroke-linejoin="round"/>
<path d="M1166.38 288.156V378.07H1148.84C1123.75 369.812 1096.3 356.933 1092.64 339.431C1087.65 315.482 1138.06 296.72 1166.38 288.156Z" fill="white" stroke="#263238" stroke-miterlimit="10" stroke-linecap="round" stroke-linejoin="round"/>
<path d="M1043.92 378.07H957.541V340.223C993.889 306.432 1048.92 261.669 1058.05 290.838C1068.51 324.208 1046.73 358.193 1043.92 378.07Z" fill="white" stroke="#263238" stroke-miterlimit="10" stroke-linecap="round" stroke-linejoin="round"/>
<path d="M1014.25 222.352C1014.25 237.154 983.33 246.689 957.541 252.086V164.887C978.928 178.865 1014.25 204.641 1014.25 222.352Z" fill="white" stroke="#263238" stroke-miterlimit="10" stroke-linecap="round" stroke-linejoin="round"/>
<path d="M1088.61 234.504C1104.84 234.504 1118 222.883 1118 208.548C1118 194.213 1104.84 182.592 1088.61 182.592C1072.37 182.592 1059.21 194.213 1059.21 208.548C1059.21 222.883 1072.37 234.504 1088.61 234.504Z" fill="white" stroke="#263238" stroke-miterlimit="10" stroke-linecap="round" stroke-linejoin="round"/>
<path d="M1011.94 273.162C1011.94 278.043 1007.3 281.999 1001.57 281.999C995.838 281.999 991.193 278.043 991.193 273.162C991.193 268.282 995.838 264.326 1001.57 264.326C1007.3 264.326 1011.94 268.284 1011.94 273.162Z" fill="white" stroke="#263238" stroke-miterlimit="10" stroke-linecap="round" stroke-linejoin="round"/>
<path d="M1103.01 299.671C1103.01 306.381 1097.34 311.82 1090.33 311.82C1083.33 311.82 1077.65 306.381 1077.65 299.671C1077.65 292.961 1083.33 287.522 1090.33 287.522C1097.34 287.522 1103.01 292.961 1103.01 299.671Z" fill="white" stroke="#263238" stroke-miterlimit="10" stroke-linecap="round" stroke-linejoin="round"/>
<path d="M1129.53 333.911C1129.53 336.351 1127.46 338.329 1124.92 338.329C1122.37 338.329 1120.31 336.351 1120.31 333.911C1120.31 331.471 1122.37 329.493 1124.92 329.493C1127.46 329.493 1129.53 331.471 1129.53 333.911Z" fill="white" stroke="#263238" stroke-miterlimit="10" stroke-linecap="round" stroke-linejoin="round"/>
<path d="M1048.17 181.974C1056.73 173.779 1056.73 160.491 1048.17 152.296C1039.62 144.101 1025.75 144.101 1017.2 152.296C1008.64 160.492 1008.64 173.779 1017.2 181.974C1025.75 190.169 1039.62 190.169 1048.17 181.974Z" fill="white" stroke="#263238" stroke-miterlimit="10" stroke-linecap="round" stroke-linejoin="round"/>
<path d="M1098.26 511.757C1107.71 511.757 1115.37 492.503 1115.37 468.752C1115.37 445.001 1107.71 425.747 1098.26 425.747C1088.81 425.747 1081.15 445.001 1081.15 468.752C1081.15 492.503 1088.81 511.757 1098.26 511.757Z" fill="#92E3A9" stroke="#263238" stroke-miterlimit="10"/>
<path d="M1045.09 442.231C1050.44 458.364 1060.72 469.632 1068.05 467.402C1075.37 465.172 1076.98 450.286 1071.63 434.155C1066.28 418.022 1056 406.754 1048.67 408.984C1041.34 411.212 1039.74 426.099 1045.09 442.231Z" fill="#92E3A9" stroke="#263238" stroke-miterlimit="10"/>
<path d="M1170.66 539.505C1188.07 536.678 1201.15 528.498 1199.87 521.234C1198.59 513.97 1183.42 510.375 1166 513.203C1148.59 516.029 1135.51 524.209 1136.79 531.473C1138.08 538.736 1153.24 542.331 1170.66 539.505Z" fill="#92E3A9" stroke="#263238" stroke-miterlimit="10"/>
<path d="M1028.98 499.746C1043.53 513.57 1060.72 519.565 1067.37 513.135C1074.03 506.705 1067.63 490.286 1053.08 476.463C1038.53 462.638 1021.34 456.644 1014.69 463.075C1008.03 469.503 1014.43 485.922 1028.98 499.746Z" fill="#92E3A9" stroke="#263238" stroke-miterlimit="10"/>
<path d="M1129.23 461.827C1115.16 481.384 1110.97 501.999 1119.87 507.875C1128.76 513.751 1147.38 502.66 1161.45 483.103C1175.52 463.546 1179.71 442.931 1170.81 437.055C1161.92 431.181 1143.3 442.272 1129.23 461.827Z" fill="#92E3A9" stroke="#263238" stroke-miterlimit="10"/>
<path d="M1097.06 509.612L1095.74 640.439" stroke="#263238" stroke-miterlimit="10" stroke-linecap="round"/>
<path d="M1098.66 452.761L1097.06 509.612" stroke="#263238" stroke-miterlimit="10" stroke-linecap="round"/>
<path d="M1098.54 443.487L1098.66 447.842" stroke="#263238" stroke-miterlimit="10" stroke-linecap="round"/>
<path d="M1119.93 505.083C1111.35 522.343 1104.38 543.309 1103.03 567.127V648.044" stroke="#263238" stroke-miterlimit="10" stroke-linecap="round"/>
<path d="M1149.33 461.995C1141.35 470.818 1129.62 485.589 1119.93 505.084" stroke="#263238" stroke-miterlimit="10" stroke-linecap="round"/>
<path d="M1158.58 452.625C1158.58 452.625 1156.8 454.178 1153.89 457.149" stroke="#263238" stroke-miterlimit="10" stroke-linecap="round"/>
<path d="M1066.31 511.154C1076.29 524.374 1086.32 541.68 1094.05 563.903" stroke="#263238" stroke-miterlimit="10" stroke-linecap="round"/>
<path d="M1046.62 489.478C1052.66 494.969 1059.48 502.106 1066.31 511.154" stroke="#263238" stroke-miterlimit="10" stroke-linecap="round"/>
<path d="M1025.6 474.128C1025.6 474.128 1031.71 477.126 1040.59 484.306" stroke="#263238" stroke-miterlimit="10" stroke-linecap="round"/>
<path d="M1067.03 463.404C1076.51 491.988 1089.24 534.227 1095.17 570.891" stroke="#263238" stroke-miterlimit="10" stroke-linecap="round"/>
<path d="M1061.25 446.448C1062.94 451.268 1064.9 456.992 1067.03 463.403" stroke="#263238" stroke-miterlimit="10" stroke-linecap="round"/>
<path d="M1055.34 430.047C1055.34 430.047 1057 434.421 1059.66 441.927" stroke="#263238" stroke-miterlimit="10" stroke-linecap="round"/>
<path d="M1137.67 527.511C1125.82 531.814 1109.63 543.818 1104.01 559.54" stroke="#263238" stroke-miterlimit="10" stroke-linecap="round"/>
<path d="M1159.55 523.25C1153.17 523.608 1145.36 524.717 1137.67 527.511" stroke="#263238" stroke-miterlimit="10" stroke-linecap="round"/>
<path d="M1173.73 523.584C1173.73 523.584 1171.62 523.295 1168.14 523.166" stroke="#263238" stroke-miterlimit="10" stroke-linecap="round"/>
<path d="M1136.49 602.388C1152.5 609.551 1168.11 609.945 1171.36 603.269C1174.62 596.595 1164.28 585.377 1148.27 578.216C1132.26 571.056 1116.65 570.661 1113.39 577.336C1110.14 584.011 1120.48 595.228 1136.49 602.388Z" fill="#92E3A9" stroke="#263238" stroke-miterlimit="10"/>
<path d="M1136.99 582.966C1131.54 579.789 1124.45 576.447 1116.46 574.556C1116.46 574.556 1111.11 571.135 1105.45 574.753C1103.28 576.136 1104 586.508 1104 586.508V640.44" stroke="#263238" stroke-miterlimit="10" stroke-linecap="round"/>
<path d="M1148.46 590.963C1148.46 590.963 1146.9 589.578 1144.11 587.576" stroke="#263238" stroke-miterlimit="10" stroke-linecap="round"/>
<path d="M1021.59 539.505C1004.17 536.678 991.094 528.498 992.379 521.234C993.662 513.97 1008.83 510.375 1026.24 513.203C1043.66 516.029 1056.74 524.209 1055.46 531.473C1054.17 538.736 1039.01 542.331 1021.59 539.505Z" fill="#92E3A9" stroke="#263238" stroke-miterlimit="10"/>
<path d="M1054.2 527.377C1056.29 528.12 1058.37 528.986 1060.41 529.993C1074.8 537.095 1083.61 551.562 1083.61 567.074V638.365" stroke="#263238" stroke-miterlimit="10" stroke-linecap="round"/>
<path d="M1030.87 523.164C1037.44 523.403 1045.88 524.411 1054.2 527.377" stroke="#263238" stroke-miterlimit="10" stroke-linecap="round"/>
<path d="M1018.52 523.584C1018.52 523.584 1019.91 523.393 1022.29 523.253" stroke="#263238" stroke-miterlimit="10" stroke-linecap="round"/>
<path d="M1039.08 588.339C1023.77 596.792 1008.25 598.47 1004.41 592.086C1000.57 585.703 1009.87 573.677 1025.18 565.225C1040.48 556.774 1056 555.095 1059.84 561.478C1063.68 567.861 1054.39 579.887 1039.08 588.339Z" fill="#92E3A9" stroke="#263238" stroke-miterlimit="10"/>
<path d="M1035.36 570.083C1040.59 566.253 1047.76 561.882 1056.15 559.084C1056.15 559.084 1075.14 556.083 1079.47 567.838" stroke="#263238" stroke-miterlimit="10" stroke-linecap="round"/>
<path d="M1026.13 577.941C1026.13 577.941 1027.07 576.948 1028.81 575.383" stroke="#263238" stroke-miterlimit="10" stroke-linecap="round"/>
<path d="M1076.58 568.53C1076.58 568.53 1098.96 564.382 1098.96 578.901C1098.96 593.421 1083.08 605.176 1076.58 621.771C1070.09 638.365 1057.82 639.057 1051.32 622.462C1044.83 605.868 1054.21 575.443 1076.58 568.53Z" fill="#92E3A9" stroke="#263238" stroke-miterlimit="10"/>
<path d="M1091.74 569.221C1091.74 569.221 1072.25 576.828 1066.48 601.028L1091.74 569.221Z" fill="#92E3A9"/>
<path d="M1091.74 569.221C1091.74 569.221 1072.25 576.828 1066.48 601.028" stroke="#263238" stroke-miterlimit="10"/>
<path d="M1090.3 601.028V640.439" stroke="#263238" stroke-miterlimit="10" stroke-linecap="round"/>
<path d="M1054.45 717.189C1049.34 701.921 1046.36 684.294 1046.36 666.741C1046.36 655.867 1047.51 645.474 1049.6 635.895H1140.75C1142.83 645.474 1143.99 655.868 1143.99 666.741C1143.99 684.294 1141 701.923 1135.89 717.189H1054.45Z" fill="#263238"/>
<path d="M1143.09 650.316C1143.35 652.685 1143.55 655.093 1143.7 657.526H1046.65C1046.8 655.091 1047 652.685 1047.26 650.316H1143.09Z" fill="#7A7A7A"/>
<path d="M1047.68 687.17C1047.38 684.78 1047.11 682.377 1046.91 679.959H1143.44C1143.23 682.377 1142.97 684.78 1142.67 687.17H1047.68Z" fill="#7A7A7A"/>
<path d="M1132.21 667.142C1132.21 669.149 1133.96 670.774 1136.13 670.774C1138.3 670.774 1140.06 669.149 1140.06 667.142C1140.06 665.134 1138.3 663.509 1136.13 663.509C1133.96 663.507 1132.21 665.134 1132.21 667.142Z" fill="#8C8C8C"/>
<path d="M1112.57 667.142C1112.57 669.149 1114.33 670.774 1116.5 670.774C1118.66 670.774 1120.42 669.149 1120.42 667.142C1120.42 665.134 1118.66 663.509 1116.5 663.509C1114.33 663.507 1112.57 665.134 1112.57 667.142Z" fill="#8C8C8C"/>
<path d="M1092.93 667.142C1092.93 669.149 1094.69 670.774 1096.86 670.774C1099.03 670.774 1100.79 669.149 1100.79 667.142C1100.79 665.134 1099.03 663.509 1096.86 663.509C1094.69 663.507 1092.93 665.134 1092.93 667.142Z" fill="#8C8C8C"/>
<path d="M1073.29 667.142C1073.29 669.149 1075.05 670.774 1077.22 670.774C1079.39 670.774 1081.15 669.149 1081.15 667.142C1081.15 665.134 1079.39 663.509 1077.22 663.509C1075.05 663.507 1073.29 665.134 1073.29 667.142Z" fill="#8C8C8C"/>
<path d="M1053.65 667.142C1053.65 669.149 1055.41 670.774 1057.58 670.774C1059.75 670.774 1061.51 669.149 1061.51 667.142C1061.51 665.134 1059.75 663.509 1057.58 663.509C1055.41 663.507 1053.65 665.134 1053.65 667.142Z" fill="#8C8C8C"/>
<path d="M896.236 357.01L893.218 347.05C893.218 347.05 892.213 338.697 890.536 336.769C888.86 334.842 882.489 331.629 880.141 329.381C877.794 327.133 875.783 327.132 875.447 329.06C875.112 330.987 875.783 333.878 876.788 334.522C877.794 335.165 881.147 338.056 881.147 338.056C881.147 338.056 873.671 333.571 871.659 331.965C869.647 330.359 862.369 326.812 861.364 328.096C860.358 329.381 861.699 332.272 861.699 332.272C861.699 332.272 857.344 331.359 857.344 334.25C857.344 337.141 859.363 338.119 859.363 338.119C859.363 338.119 856.491 339.035 857.161 341.285C857.832 343.534 861.748 345.329 861.748 345.329C861.748 345.329 857.901 345.924 859.913 348.495C861.925 351.065 870.416 356.368 874.776 358.296C879.134 360.224 884.5 361.83 884.5 361.83L895.23 369.219L896.236 357.01Z" fill="white" stroke="#263238" stroke-miterlimit="10" stroke-linecap="round" stroke-linejoin="round"/>
<path d="M861.698 332.274C861.698 332.274 868.068 336.771 869.409 338.056C870.75 339.34 874.412 341.284 874.412 341.284" stroke="#263238" stroke-miterlimit="10" stroke-linecap="round" stroke-linejoin="round"/>
<path d="M859.566 338.402L870.296 344.505L871.843 345.506" stroke="#263238" stroke-miterlimit="10" stroke-linecap="round" stroke-linejoin="round"/>
<path d="M881.147 338.056L882.487 343.518" stroke="#263238" stroke-miterlimit="10" stroke-linecap="round" stroke-linejoin="round"/>
<path d="M925.072 372.11L896.236 357.01L891.206 370.182L921.048 396.204L925.072 372.11Z" fill="#92E3A9" stroke="#263238" stroke-miterlimit="10" stroke-linecap="round" stroke-linejoin="round"/>
<path d="M946.986 306.109C946.986 306.109 921.536 331.135 919.191 345.252C916.847 359.369 915.507 431.878 915.507 431.878C915.507 431.878 933.256 434.766 934.929 434.766C936.603 434.766 945.645 434.766 945.645 434.766C945.645 434.766 941.291 370.277 944.306 348.14C947.32 326.002 958.371 306.109 958.371 306.109C958.371 306.109 953.683 304.185 946.986 306.109Z" fill="#92E3A9" stroke="#263238" stroke-miterlimit="10" stroke-linecap="round" stroke-linejoin="round"/>
<path d="M928.4 427.468L930.09 470.65C930.09 470.65 919.95 501.417 927.274 534.885C934.597 568.351 935.16 595.881 935.16 595.881C935.16 595.881 938.541 619.631 938.541 630.966C938.541 642.3 934.597 687.644 934.597 687.644C934.597 687.644 930.654 693.041 926.147 698.439C921.64 703.836 910.372 707.074 908.682 711.394C906.992 715.712 915.442 714.093 922.203 714.093C928.964 714.093 940.796 711.394 944.176 709.775C947.556 708.156 954.879 709.235 956.571 708.156C958.261 707.076 960.514 700.599 959.951 695.74C959.388 690.882 964.458 648.239 967.838 631.505C971.218 614.772 966.148 582.386 966.148 582.386C966.148 582.386 976.29 494.941 976.852 489.543C977.415 484.146 983.612 459.316 982.485 450.139C981.358 440.963 980.232 426.388 980.232 424.229C980.233 422.07 928.4 427.468 928.4 427.468Z" fill="#263238" stroke="#263238" stroke-miterlimit="10" stroke-linecap="round" stroke-linejoin="round"/>
<path d="M953.753 477.127C953.753 477.127 948.119 532.726 950.372 558.635C952.626 584.544 956.569 613.692 959.386 620.711C962.203 627.727 965.583 664.433 965.583 674.688C965.583 684.943 966.146 702.217 966.146 702.217C966.146 702.217 956.006 711.932 948.681 715.172C941.357 718.411 938.54 721.109 942.484 722.729C946.427 724.348 953.751 725.967 966.146 724.348C978.542 722.729 989.245 722.729 990.935 718.411C992.625 714.093 992.062 702.756 992.062 702.756C992.062 702.756 994.879 650.938 994.879 626.108C994.879 601.278 986.992 572.67 986.992 572.67L993.752 526.249C993.752 526.249 1007.27 501.419 1007.84 478.208C1008.4 454.998 994.88 428.009 993.752 426.39C992.625 424.771 945.301 429.628 945.301 429.628" fill="#263238"/>
<path d="M953.753 477.127C953.753 477.127 948.119 532.726 950.372 558.635C952.626 584.544 956.569 613.692 959.386 620.711C962.203 627.727 965.583 664.433 965.583 674.688C965.583 684.943 966.146 702.217 966.146 702.217C966.146 702.217 956.006 711.932 948.681 715.172C941.357 718.411 938.54 721.109 942.484 722.729C946.427 724.348 953.751 725.967 966.146 724.348C978.542 722.729 989.245 722.729 990.935 718.411C992.625 714.093 992.062 702.756 992.062 702.756C992.062 702.756 994.879 650.938 994.879 626.108C994.879 601.278 986.992 572.67 986.992 572.67L993.752 526.249C993.752 526.249 1007.27 501.419 1007.84 478.208C1008.4 454.998 994.88 428.009 993.752 426.39C992.625 424.771 945.301 429.628 945.301 429.628" stroke="#263238" stroke-miterlimit="10" stroke-linecap="round" stroke-linejoin="round"/>
<path d="M937.979 475.508C937.979 475.508 939.669 481.985 947.556 485.763" stroke="white" stroke-miterlimit="10" stroke-linecap="round" stroke-linejoin="round"/>
<path d="M959.951 695.74C959.938 695.631 959.933 695.481 959.924 695.336C948.023 700.811 936.287 696.819 936.287 696.819C936.287 696.819 936.287 696.819 936.287 694.66C936.287 692.501 934.597 687.644 934.597 687.644C934.597 687.644 930.654 693.041 926.147 698.438C921.64 703.836 910.372 707.074 908.682 711.394C906.992 715.712 915.442 714.093 922.203 714.093C928.965 714.093 940.796 711.394 944.176 709.775C947.556 708.155 954.879 709.235 956.571 708.155C958.261 707.076 960.514 700.597 959.951 695.74Z" fill="white" stroke="#263238" stroke-miterlimit="10" stroke-linecap="round" stroke-linejoin="round"/>
<path d="M990.937 718.411C992.239 715.083 992.204 707.606 992.119 704.343C983.963 706.583 973.473 707.616 973.473 707.616C973.473 707.616 973.473 707.616 971.783 703.838C970.093 700.059 966.15 702.218 966.15 702.218C966.15 702.218 956.009 711.934 948.684 715.174C941.361 718.412 938.544 721.111 942.487 722.73C946.431 724.35 953.754 725.969 966.15 724.349C978.543 722.729 989.247 722.729 990.937 718.411Z" fill="white" stroke="#263238" stroke-miterlimit="10" stroke-linecap="round" stroke-linejoin="round"/>
<path d="M946.316 313.168C946.316 313.168 921.871 341.722 921.202 348.46C920.532 355.197 926.56 430.594 927.564 431.236C928.567 431.878 940.959 434.765 945.646 434.765C950.334 434.765 956.028 434.124 956.028 434.124C956.028 434.124 953.349 359.689 955.358 343.969C957.367 328.248 970.763 314.131 973.441 307.394C976.119 300.657 965.404 300.335 962.39 301.298C959.376 302.258 946.316 313.168 946.316 313.168Z" fill="white" stroke="#263238" stroke-miterlimit="10" stroke-linecap="round" stroke-linejoin="round"/>
<path d="M933.592 229.108C933.592 229.108 922.541 243.867 923.21 248.038C923.88 252.209 924.55 255.417 923.21 257.663C921.871 259.909 914.504 262.154 915.174 265.683C915.843 269.213 921.871 272.1 921.871 272.1C921.871 272.1 925.219 290.067 928.903 291.992C932.587 293.916 942.298 291.35 942.298 291.35L944.643 308.034C944.643 308.034 935.267 321.83 941.629 322.151C947.991 322.473 976.12 300.655 976.12 300.655L973.441 291.03C973.441 291.03 979.469 278.198 979.803 265.363C980.139 252.529 967.413 231.355 957.367 226.862C947.321 222.37 939.618 224.936 933.592 229.108Z" fill="white" stroke="#263238" stroke-miterlimit="10" stroke-linecap="round" stroke-linejoin="round"/>
<path d="M942.298 291.35L951.339 289.426L943.972 300.655L942.298 291.35Z" fill="#263238" stroke="#263238" stroke-miterlimit="10" stroke-linecap="round" stroke-linejoin="round"/>
<path d="M927.564 272.42C927.564 272.42 933.256 274.345 937.945 268.25" stroke="#263238" stroke-miterlimit="10" stroke-linecap="round" stroke-linejoin="round"/>
<path d="M934.931 255.417C934.931 257.188 934.106 258.625 933.089 258.625C932.072 258.625 931.247 257.188 931.247 255.417C931.247 253.646 932.072 252.209 933.089 252.209C934.106 252.208 934.931 253.644 934.931 255.417Z" fill="#263238"/>
<path d="M928.903 247.717C928.903 247.717 934.596 243.224 937.61 248.68" stroke="#263238" stroke-miterlimit="10" stroke-linecap="round" stroke-linejoin="round"/>
<path d="M936.27 229.428C936.27 229.428 944.977 242.261 951.339 250.283C957.701 258.303 964.399 269.213 962.39 274.988C960.381 280.764 953.348 278.518 955.358 282.367C957.367 286.216 969.088 291.992 976.455 291.35C983.823 290.709 991.19 282.367 996.882 274.345C1002.57 266.323 1010.95 251.566 1000.9 233.599C990.856 215.633 976.457 207.291 962.058 206.649C947.659 206.008 923.548 210.82 921.203 220.445C918.859 230.07 928.235 237.129 928.235 237.129L936.27 229.428Z" fill="#263238" stroke="#263238" stroke-miterlimit="10" stroke-linecap="round" stroke-linejoin="round"/>
<path d="M960.046 310.28C960.046 310.28 933.256 347.176 931.917 357.123C930.578 367.069 938.279 436.692 938.279 436.692C938.279 436.692 955.692 438.938 972.436 436.692C989.179 434.445 1005.59 426.745 1005.59 426.745C1005.59 426.745 996.211 389.207 996.211 383.431C996.211 377.656 998.556 338.193 992.527 325.68C986.499 313.168 976.119 300.655 976.119 300.655C976.119 300.655 974.111 300.333 973.105 300.333C972.102 300.333 965.74 304.504 960.046 310.28Z" fill="#92E3A9" stroke="#263238" stroke-miterlimit="10" stroke-linecap="round" stroke-linejoin="round"/>
<path d="M898.766 366.426L890.059 361.935C890.059 361.935 887.045 353.272 885.372 350.706C883.697 348.14 879.01 348.781 876.999 349.101C874.99 349.423 868.962 347.818 865.278 346.213C861.595 344.609 859.92 346.535 861.261 348.46C862.6 350.384 865.614 352.631 865.614 352.631C865.614 352.631 850.21 353.272 849.206 353.272C848.203 353.272 842.174 351.667 843.514 355.838C844.853 360.009 856.238 367.388 861.932 368.351C867.625 369.314 882.359 368.673 882.359 368.673L891.066 375.09L898.766 366.426Z" fill="white" stroke="#263238" stroke-miterlimit="10" stroke-linecap="round" stroke-linejoin="round"/>
<path d="M865.612 352.631L873.985 355.197L878.338 356.48" stroke="#263238" stroke-miterlimit="10" stroke-linecap="round" stroke-linejoin="round"/>
<path d="M844.099 353.822C844.099 353.822 851.23 358.214 852.757 358.946C854.285 359.678 865.744 360.41 865.744 360.41" stroke="#263238" stroke-miterlimit="10" stroke-linecap="round" stroke-linejoin="round"/>
<path d="M846.646 359.92C846.646 359.92 858.36 364.313 859.633 364.313C860.907 364.313 866.51 364.069 866.51 364.069" stroke="#263238" stroke-miterlimit="10" stroke-linecap="round" stroke-linejoin="round"/>
<path d="M962.39 331.135L939.618 385.998L898.764 366.426L887.043 380.544C887.043 380.544 935.265 416.157 938.947 417.762C942.631 419.366 949.329 420.008 950.668 419.045C952.007 418.082 988.842 359.048 988.842 359.048" fill="#92E3A9"/>
<path d="M962.39 331.135L939.618 385.998L898.764 366.426L887.043 380.544C887.043 380.544 935.265 416.157 938.947 417.762C942.631 419.366 949.329 420.008 950.668 419.045C952.007 418.082 988.842 359.048 988.842 359.048" stroke="#263238" stroke-miterlimit="10" stroke-linecap="round" stroke-linejoin="round"/>
<path d="M952.82 487.94C952.82 487.94 949.36 549.506 952.82 573.186C956.281 596.865 962.211 632.384 962.211 632.384" stroke="white" stroke-miterlimit="10" stroke-linecap="round" stroke-linejoin="round"/>
<path d="M723.872 434.064C723.872 434.064 719.809 503.067 719.043 515.965C718.277 528.864 719.822 595.267 724.41 601.955C728.999 608.644 734.589 674.092 734.589 674.092C734.589 674.092 730.516 675.525 730.374 677.914C730.232 680.302 730.333 686.991 730.333 686.991C730.333 686.991 716.746 697.501 709.097 700.366C701.448 703.233 701.748 706.577 706.179 707.532C710.61 708.487 722.932 710.875 732.022 708.965C741.11 707.053 750.341 702.755 754.387 701.8C758.433 700.845 763.861 701.8 766.524 698.933C769.188 696.066 767.732 686.989 767.732 686.989C767.732 686.989 769.37 684.601 767.885 676.002C766.401 667.403 764.662 663.103 764.804 660.715C764.946 658.326 764.524 581.413 764.524 581.413L764.669 494.945C764.669 494.945 772.116 579.503 773.856 583.801C775.595 588.101 788.579 654.981 789.379 658.326C790.176 661.67 790.352 675.524 790.352 675.524C790.352 675.524 786.55 680.779 786.464 682.212C786.38 683.646 788.249 694.156 788.249 694.156C788.249 694.156 775.986 707.532 769.306 710.877C762.625 714.22 770.319 718.997 776.772 719.476C783.226 719.954 790.677 720.431 799.851 717.087C809.025 713.744 821.201 701.8 823.864 698.935C826.527 696.068 824.789 691.769 823.932 689.379C823.077 686.991 821.693 685.081 822.306 683.169C822.918 681.257 826.261 666.927 826.659 660.238C827.055 653.549 827.425 647.339 827.425 647.339C827.425 647.339 828.226 608.644 825.699 592.401C823.173 576.159 817.452 546.539 817.452 546.539C817.452 546.539 812.786 473.926 813.483 470.581C814.179 467.237 816.981 455.833 815.954 445.74C814.928 435.646 813.399 429.974 813.399 429.974L723.872 434.064Z" fill="#263238" stroke="#263238" stroke-miterlimit="10" stroke-linecap="round" stroke-linejoin="round"/>
<path d="M762.557 300.539C762.557 300.539 722.969 312.879 722.902 315.726C722.836 318.574 713.158 379.324 713.158 379.324L664.783 410.994C664.783 410.994 671.614 415.424 672.84 419.536C674.065 423.649 674.065 423.649 674.065 423.649L724.703 408.116C724.703 408.116 722.16 432.164 723.437 434.061C724.713 435.96 732.265 437.859 732.265 437.859C732.265 437.859 777.449 440.389 792.325 439.757C807.202 439.124 813.498 438.175 814.547 435.645C815.596 433.114 816.235 434.063 816.325 430.265C816.414 426.469 843.531 311.927 843.576 310.03C843.62 308.131 842.367 305.284 839.754 304.018C837.142 302.753 802.035 292.944 802.035 292.944L762.557 300.539Z" fill="white" stroke="#263238" stroke-miterlimit="10" stroke-linecap="round" stroke-linejoin="round"/>
<path d="M756.295 314.146L759.864 331.072L742.791 412.701L748.755 435.53L766.668 410.626L766.377 330.38L780.534 311.702L774.279 300.916L756.295 314.146Z" fill="#92E3A9" stroke="#263238" stroke-miterlimit="10" stroke-linecap="round" stroke-linejoin="round"/>
<path d="M744.146 406.229L761.823 417.36L766.668 410.626L766.654 406.865L746.647 394.269L744.146 406.229Z" fill="#263238"/>
<path d="M754.244 357.943L751.547 370.838L766.57 383.8L766.516 368.531L754.244 357.943Z" fill="#263238"/>
<path d="M757.612 320.392L759.864 331.072L758.722 336.534L766.425 343.147L766.379 330.38L767.509 328.889L757.612 320.392Z" fill="#263238"/>
<path d="M731.501 343.685L732.329 336.295" stroke="#263238" stroke-miterlimit="10" stroke-linecap="round" stroke-linejoin="round"/>
<path d="M724.815 403.373L730.58 351.912" stroke="#263238" stroke-miterlimit="10" stroke-linecap="round" stroke-linejoin="round"/>
<path d="M761.058 323.084L750.346 300.224L764.416 291.68L761.058 323.084Z" fill="white" stroke="#263238" stroke-miterlimit="10" stroke-linecap="round" stroke-linejoin="round"/>
<path d="M750.346 300.224L746.276 318.892L756.295 314.145L750.346 300.224Z" fill="white" stroke="#263238" stroke-miterlimit="10" stroke-linecap="round" stroke-linejoin="round"/>
<path d="M762.238 214.417C762.238 214.417 750.95 250.929 750.14 266.142C749.33 281.355 754.168 287.876 758.221 289.18L761.82 290.484L761.058 323.084L773.239 306.567L774.278 300.915L797.933 278.747L803.26 264.404C803.26 264.404 812.292 266.142 815.198 258.318C818.103 250.493 814.576 246.148 814.576 246.148C814.576 246.148 826.656 233.978 822.464 219.199C818.273 204.421 807.278 189.643 786.408 189.643C765.539 189.643 751.192 201.813 762.238 214.417Z" fill="white" stroke="#263238" stroke-miterlimit="10" stroke-linecap="round" stroke-linejoin="round"/>
<path d="M822.466 219.199C818.275 204.421 807.279 189.643 786.41 189.643C765.541 189.643 751.192 201.813 762.24 214.417C762.24 214.417 769.366 220.069 774.377 219.199C779.388 218.33 782.645 214.852 791.163 219.199C799.681 223.546 800.507 227.022 797.653 232.673C794.8 238.325 795.193 240.931 796.501 243.105C796.646 243.344 796.795 243.625 796.945 243.927L788.765 263.534C788.765 263.534 786.164 258.318 775.378 253.972C764.591 249.625 751.736 256.146 751.736 256.146C743.292 291.281 761.82 290.484 761.82 290.484C761.82 290.484 783.688 286.572 790.171 280.922C796.655 275.271 797.653 271.36 798.25 265.275C798.605 261.661 798.583 253.601 798.507 247.651C799.087 249.21 799.504 250.496 799.504 250.496C799.504 250.496 801.41 246.584 805.977 245.28C810.545 243.976 814.577 246.149 814.577 246.149C814.577 246.149 826.656 233.978 822.466 219.199Z" fill="#263238" stroke="#263238" stroke-miterlimit="10" stroke-linecap="round" stroke-linejoin="round"/>
<path d="M770.876 233.108L766.993 243.974C766.993 243.974 754.117 251.364 756.819 252.232C759.521 253.101 768.655 250.493 768.655 250.493" stroke="#263238" stroke-miterlimit="10" stroke-linecap="round" stroke-linejoin="round"/>
<path d="M756.573 262.665C756.573 262.665 761.894 267.881 772.028 261.361" stroke="white" stroke-miterlimit="10" stroke-linecap="round" stroke-linejoin="round"/>
<path d="M779.601 242.735C779.297 244.247 778.22 245.338 777.191 245.17C776.162 245.002 775.575 243.64 775.877 242.127C776.18 240.614 777.258 239.524 778.287 239.692C779.316 239.86 779.905 241.222 779.601 242.735Z" fill="#263238"/>
<path d="M763.593 240.598C763.289 242.111 762.211 243.202 761.183 243.034C760.154 242.866 759.567 241.503 759.869 239.991C760.172 238.478 761.25 237.387 762.279 237.555C763.308 237.723 763.896 239.084 763.593 240.598Z" fill="#263238"/>
<path d="M759.929 231.532C759.929 231.532 763.32 229.609 768.181 231.532" stroke="#263238" stroke-miterlimit="10" stroke-linecap="round" stroke-linejoin="round"/>
<path d="M777.078 232.601C777.078 232.601 782.445 231.959 786.354 236.447" stroke="#263238" stroke-miterlimit="10" stroke-linecap="round" stroke-linejoin="round"/>
<path d="M773.241 306.565L777.304 319.524L806.709 290.731L797.935 278.747L774.28 300.915L773.241 306.565Z" fill="white" stroke="#263238" stroke-miterlimit="10" stroke-linecap="round" stroke-linejoin="round"/>
<path d="M689.735 434.759C689.735 434.759 683.402 431.575 686.261 431.12C689.12 430.666 694.062 432.484 694.062 432.484C694.062 432.484 687.991 428.162 691.071 428.39C694.151 428.618 699.051 432.256 699.051 432.256C699.051 432.256 697.481 428.39 700.538 429.526C703.598 430.664 705.216 432.482 705.216 432.482C705.216 432.482 701.802 436.348 698.945 436.803C696.086 437.257 696.787 437.713 694.905 437.031C693.021 436.351 689.735 434.759 689.735 434.759Z" fill="white" stroke="#263238" stroke-miterlimit="10" stroke-linecap="round" stroke-linejoin="round"/>
<path d="M733.142 414.448C733.142 414.448 716.924 414.452 714.546 416.316C712.168 418.179 708.943 423.024 707.759 423.77C706.575 424.515 693.729 424.889 694.057 427.497C694.384 430.107 702.156 430.478 702.156 430.478L696.578 436.07C696.578 436.07 684.615 431.97 683.785 434.206C682.955 436.443 696.457 441.288 699.569 441.288C702.681 441.288 708.948 439.424 710.142 438.306C711.335 437.188 724.137 426.049 724.137 426.049C724.695 427.28 733.999 425.202 734.398 423.901C734.747 422.762 733.142 414.448 733.142 414.448Z" fill="white" stroke="#263238" stroke-miterlimit="10" stroke-linecap="round" stroke-linejoin="round"/>
<path d="M702.156 430.478C702.156 430.478 709.282 431.12 712.141 430.666C715 430.212 718.414 426.344 718.414 426.344" stroke="#263238" stroke-miterlimit="10" stroke-linecap="round" stroke-linejoin="round"/>
<path d="M812.125 327.434L796.503 388.184L733.142 414.446L734.812 427.736C734.812 427.736 789.252 421.784 802.536 418.62C815.821 415.456 832.21 406.597 834.354 399.635C836.497 392.674 847.344 318.259 847.149 312.562C846.951 306.867 846.305 306.234 843.701 304.652C841.097 303.07 821.694 299.589 821.694 299.589" fill="white"/>
<path d="M812.125 327.434L796.503 388.184L733.142 414.446L734.812 427.736C734.812 427.736 789.252 421.784 802.536 418.62C815.821 415.456 832.21 406.597 834.354 399.635C836.497 392.674 847.344 318.259 847.149 312.562C846.951 306.867 846.305 306.234 843.701 304.652C841.097 303.07 821.694 299.589 821.694 299.589" stroke="#263238" stroke-miterlimit="10" stroke-linecap="round" stroke-linejoin="round"/>
<path d="M742.801 410.967L745.124 424.572" stroke="#263238" stroke-miterlimit="10" stroke-linecap="round" stroke-linejoin="round"/>
<path d="M671.148 407.2C671.148 407.2 681.68 408.782 680.437 419.539" stroke="#263238" stroke-miterlimit="10" stroke-linecap="round" stroke-linejoin="round"/>
<path d="M664.785 410.996L655.867 415.121C655.867 415.121 650.067 413.63 648.512 413.63C646.955 413.63 644.966 415.493 640.343 413.63C635.718 411.767 631.889 409.157 631.81 412.512C631.731 415.866 634.005 418.475 636.322 419.22C638.639 419.965 641.335 421.083 641.335 421.083L626.61 435.245C626.61 435.245 619.054 442.327 620.972 443.445C622.889 444.563 640.093 440.835 642.834 440.09C645.575 439.345 661.275 433.382 663.678 430.401C666.082 427.419 667.293 425.556 667.293 425.556L674.066 423.651C674.066 423.651 672.361 414.325 664.785 410.996Z" stroke="#263238" stroke-miterlimit="10" stroke-linecap="round" stroke-linejoin="round"/>
<path d="M658.328 426.303C658.328 426.303 650.574 425.184 647.427 426.676C644.28 428.167 639.844 434.875 639.844 434.875C639.844 434.875 629.66 437.857 627.273 440.094" stroke="#263238" stroke-miterlimit="10" stroke-linecap="round" stroke-linejoin="round"/>
<path d="M1214.34 705.953H30.5725" stroke="#263238" stroke-miterlimit="10" stroke-linecap="round" stroke-linejoin="round"/>
<path d="M283.281 476.093C283.281 476.093 284.751 485.807 286.081 488.777C287.41 491.747 288.737 495.989 286.966 498.959C285.195 501.929 270.965 508.004 270.965 508.004L270.582 470.109L282.587 468.283L283.281 476.093Z" fill="white" stroke="#263238" stroke-miterlimit="10" stroke-linecap="round" stroke-linejoin="round"/>
<path d="M279.811 485.067C279.811 485.067 279.438 489.199 278.551 493.866C277.664 498.533 277.492 503.938 272.177 503.515" fill="white"/>
<path d="M279.811 485.067C279.811 485.067 279.438 489.199 278.551 493.866C277.664 498.533 277.492 503.938 272.177 503.515" stroke="#263238" stroke-miterlimit="10" stroke-linecap="round" stroke-linejoin="round"/>
<path d="M268.367 308.459L277.224 401.376L283.422 471.804L268.818 472.223L261.282 409.436L268.367 308.459Z" fill="white" stroke="#263238" stroke-miterlimit="10" stroke-linecap="round" stroke-linejoin="round"/>
<path d="M173.818 417.823C173.818 417.823 169.525 454.043 170.401 458.698C171.276 463.356 174.243 567.872 174.243 567.872C174.243 567.872 167.768 604.609 168.012 611.334C168.257 618.06 170.406 692.05 170.406 692.05C170.406 692.05 166.012 706.021 165.336 709.125C164.659 712.229 165.535 716.887 167.65 717.921C169.765 718.955 183.737 720.508 189.723 719.474C195.709 718.44 202.774 717.404 204.173 710.161C205.571 702.918 201.165 692.569 201.842 689.465C202.518 686.36 203.309 680.669 203.468 677.047C203.626 673.426 203.763 670.322 203.763 670.322C203.763 670.322 214.864 602.023 214.956 599.955C215.047 597.886 221.669 533.209 221.669 533.209C221.669 533.209 220.906 624.272 220.27 638.76C219.634 653.247 217.308 669.287 217.217 671.356C217.126 673.424 214.932 698.779 215.381 700.848C215.829 702.918 219.542 704.469 222.76 704.986C225.978 705.504 234.641 704.986 236.26 704.986C237.881 704.986 249.647 707.574 257.208 707.574C264.77 707.574 273.454 706.539 272.039 701.882C270.624 697.225 258.407 692.569 254.719 690.499C251.03 688.429 246.174 676.012 246.174 676.012C246.174 676.012 249.846 666.181 250.074 661.007C250.301 655.833 266.605 579.774 269.157 558.561C271.709 537.347 269.48 440.591 269.48 440.591L271.474 418.348C271.479 418.347 207.858 429.723 173.818 417.823Z" fill="#263238" stroke="#263238" stroke-miterlimit="10" stroke-linecap="round" stroke-linejoin="round"/>
<path d="M190.43 280.882C190.43 280.882 169.174 297.428 159.432 302.52C149.69 307.61 138.619 314.399 138.619 314.399C138.619 314.399 125.776 418.347 127.106 422.165C128.435 425.984 133.748 480.715 133.748 480.715L153.232 479.866L158.103 413.255L168.289 381.011L169.618 419.195C169.618 419.195 168.732 424.711 173.604 426.832C178.475 428.954 220.985 432.773 242.242 431.499C263.498 430.226 270.14 422.59 271.025 418.347C271.911 414.105 273.235 339.606 273.677 331.545C274.12 323.484 269.75 302.425 259.236 290.663C256.355 287.441 224.085 281.732 224.085 281.732C224.085 281.732 201.943 274.941 190.43 280.882Z" fill="white" stroke="#263238" stroke-miterlimit="10" stroke-linecap="round" stroke-linejoin="round"/>
<path d="M218.137 300.718L230.146 316.284L225.907 411.031C225.907 411.031 235.089 422.536 236.503 424.567C237.916 426.598 249.217 408.324 249.217 408.324L235.796 317.636L241.446 301.394L238.242 291.892L222.373 287.183L218.137 300.718Z" fill="#92E3A9" stroke="#263238" stroke-miterlimit="10" stroke-linecap="round" stroke-linejoin="round"/>
<path d="M228.407 355.142L240.264 347.833L238.225 334.05L229.098 339.675L228.407 355.142Z" fill="#263238"/>
<path d="M230.144 316.284L229.891 321.951L235.867 318.116L235.796 317.638L241.446 301.395L240.869 299.682L225.13 309.782L230.144 316.284Z" fill="#263238"/>
<path d="M249.217 408.325L247.599 397.396L226.067 407.421L225.905 411.031C225.905 411.031 229.091 415.023 231.999 418.72L247.068 411.704C248.35 409.726 249.217 408.325 249.217 408.325Z" fill="#263238"/>
<path d="M227.526 374.802L226.826 390.448L244.865 378.926L242.811 365.04L227.526 374.802Z" fill="#263238"/>
<path d="M168.289 381.011L184.673 346.22" stroke="#263238" stroke-miterlimit="10" stroke-linecap="round" stroke-linejoin="round"/>
<path d="M233.018 306.419L241.908 280.866L230.055 275.187L233.018 306.419Z" fill="white" stroke="#263238" stroke-miterlimit="10" stroke-linecap="round" stroke-linejoin="round"/>
<path d="M241.909 280.865L253.762 294.707L238.242 291.891L241.909 280.865Z" fill="white" stroke="#263238" stroke-miterlimit="10" stroke-linecap="round" stroke-linejoin="round"/>
<path d="M228.203 200.655C228.203 200.655 232.278 216.982 236.722 226.565C241.168 236.148 242.278 242.18 240.797 251.763C239.314 261.346 239.314 265.604 237.093 266.669C234.87 267.734 228.943 268.799 228.943 268.799L233.018 306.419L223.757 293.997L193.751 266.669L177.453 225.144C177.453 225.144 168.933 215.206 180.045 202.785C191.16 190.363 220.795 191.782 228.203 200.655Z" fill="white" stroke="#263238" stroke-miterlimit="10" stroke-linecap="round" stroke-linejoin="round"/>
<path d="M181.529 237.566L186.716 235.437C186.716 235.437 182.27 231.888 183.752 226.563C185.235 221.24 200.422 218.045 198.57 213.787C196.718 209.529 179.306 208.818 190.791 203.85C202.274 198.881 222.648 205.625 229.316 206.334C235.983 207.043 229.687 193.202 229.687 193.202C229.687 193.202 241.541 191.073 232.279 182.91C223.018 174.748 184.864 179.715 174.121 190.719C163.379 201.72 165.602 210.594 168.935 216.628C172.269 222.662 178.196 236.859 178.196 236.859L181.529 237.566Z" fill="#263238" stroke="#263238" stroke-miterlimit="10" stroke-linecap="round" stroke-linejoin="round"/>
<path d="M186.714 239.696C186.714 239.696 179.305 232.243 175.231 235.792C171.156 239.341 177.083 248.214 181.899 251.407C186.714 254.602 191.16 250.698 191.16 250.698" fill="white"/>
<path d="M186.714 239.696C186.714 239.696 179.305 232.243 175.231 235.792C171.156 239.341 177.083 248.214 181.899 251.407C186.714 254.602 191.16 250.698 191.16 250.698" stroke="#263238" stroke-miterlimit="10" stroke-linecap="round" stroke-linejoin="round"/>
<path d="M228.203 214.143C228.203 214.143 224.499 211.303 222.647 215.207C220.795 219.112 221.906 223.37 221.906 223.37L233.76 240.406L222.277 242.89" stroke="#263238" stroke-miterlimit="10" stroke-linecap="round" stroke-linejoin="round"/>
<path d="M226.351 249.633C226.351 249.633 218.572 252.828 210.793 246.794" stroke="#263238" stroke-miterlimit="10" stroke-linecap="round" stroke-linejoin="round"/>
<path d="M212.645 217.336C212.645 217.336 203.014 213.787 198.199 222.305" stroke="#263238" stroke-miterlimit="10" stroke-linecap="round" stroke-linejoin="round"/>
<path d="M211.719 232.242C213.049 232.242 214.127 230.653 214.127 228.693C214.127 226.733 213.049 225.144 211.719 225.144C210.389 225.144 209.31 226.733 209.31 228.693C209.31 230.653 210.389 232.242 211.719 232.242Z" fill="#263238"/>
<path d="M232.649 224.079C232.649 226.039 231.571 227.628 230.24 227.628C228.911 227.628 227.832 226.039 227.832 224.079C227.832 222.119 228.909 220.531 230.24 220.531C231.571 220.531 232.649 222.119 232.649 224.079Z" fill="#263238"/>
<path d="M228.945 268.799L211.904 267.378L230.797 290.802L228.945 268.799Z" fill="#263238" stroke="#263238" stroke-miterlimit="10"/>
<path d="M193.753 266.669L185.974 279.801L210.422 313.517L223.758 293.997L193.753 266.669Z" fill="white" stroke="#263238" stroke-miterlimit="10" stroke-linecap="round" stroke-linejoin="round"/>
<path d="M166.97 521.919H127.31V505.795C127.31 501.958 130.556 498.848 134.561 498.848H159.721C163.725 498.848 166.972 501.957 166.972 505.795L166.97 521.919Z" stroke="#263238" stroke-width="4" stroke-miterlimit="10" stroke-linecap="round" stroke-linejoin="round"/>
<path d="M196.512 593.526H96.6831C91.3583 593.526 87.0438 589.391 87.0438 584.29V526.531C87.0438 521.431 91.36 517.296 96.6831 517.296H196.512C201.837 517.296 206.151 521.431 206.151 526.531V584.29C206.151 589.391 201.837 593.526 196.512 593.526Z" fill="#636363" stroke="#263238" stroke-miterlimit="10" stroke-linecap="round" stroke-linejoin="round"/>
<path d="M153.232 479.866C153.232 479.866 156.332 484.533 159.432 488.775C162.532 493.017 168.289 495.139 167.845 497.261C167.403 499.383 164.745 500.654 162.974 500.231C161.203 499.806 154.117 494.291 154.117 494.291L155.447 505.321C155.447 505.321 157.218 509.14 154.117 510.413C151.017 511.687 146.59 511.687 145.704 510.413C144.819 509.14 143.933 507.02 143.933 507.02C143.933 507.02 136.406 507.02 134.191 505.746C131.977 504.473 129.32 502.353 129.762 496.837C130.206 491.322 133.748 480.715 133.748 480.715L153.232 479.866Z" fill="white" stroke="#263238" stroke-miterlimit="10" stroke-linecap="round" stroke-linejoin="round"/>
<path d="M472.117 454.364H428.181V470.149H472.117V454.364Z" fill="white" stroke="#263238" stroke-miterlimit="10" stroke-linecap="round" stroke-linejoin="round"/>
<path d="M535.178 461.728H365.119C361.27 461.728 358.148 458.739 358.148 455.049V341.032C358.148 337.345 361.269 334.354 365.119 334.354H535.179C539.028 334.354 542.15 337.343 542.15 341.032V455.049C542.149 458.739 539.028 461.728 535.178 461.728Z" fill="#263238" stroke="#263238" stroke-miterlimit="10" stroke-linecap="round" stroke-linejoin="round"/>
<path d="M358.148 441.21V455.051C358.148 458.739 361.269 461.73 365.119 461.73H535.179C539.028 461.73 542.15 458.74 542.15 455.051V441.21H358.148Z" fill="white" stroke="#263238" stroke-miterlimit="10" stroke-linecap="round" stroke-linejoin="round"/>
<path d="M660.441 334.974L603.987 335.422C603.987 335.422 600.254 334.974 599.322 337.657C599.322 337.657 589.524 361.349 589.057 369.842C588.589 378.336 590.924 376.995 587.189 388.171C583.457 399.346 572.726 425.721 566.659 447.179C558.508 476.019 556.382 506.626 555.866 536.392C555.784 541.169 552.803 582.269 560.564 582.269C567.003 582.269 626.401 589.811 627.118 578.84C629.97 535.112 621.727 492.385 637.58 449.857C643.737 433.342 650.797 415.897 656.021 398.619C661.264 381.269 662.158 363.383 665.574 345.703C667.906 333.633 660.441 334.974 660.441 334.974Z" fill="#263238" stroke="#263238" stroke-miterlimit="10"/>
<path d="M665.97 340.33C665.414 334.087 660.441 334.974 660.441 334.974L603.987 335.422C603.987 335.422 600.254 334.974 599.322 337.657C599.322 337.657 589.524 361.349 589.057 369.843C588.876 373.126 589.114 374.939 589.257 376.575L590.456 378.336C590.456 378.336 592.322 393.982 614.717 394.876C637.113 395.77 649.711 385.936 654.376 376.549C659.041 367.162 660.909 351.963 664.641 343.022C665.016 342.123 665.478 341.225 665.97 340.33Z" fill="#BABABA" stroke="#263238" stroke-miterlimit="10" stroke-linecap="round" stroke-linejoin="round"/>
<path d="M652.883 357.79C649.097 370.849 651.369 374.477 647.582 396.967C643.796 419.457 630.166 444.851 624.864 468.066C619.563 491.282 621.835 573.263 622.593 576.891C622.881 578.273 622.948 580.496 622.923 582.72C625.465 581.81 627.005 580.551 627.116 578.84C629.968 535.112 621.726 492.385 637.579 449.856C643.735 433.34 650.797 415.895 656.019 398.617C661.263 381.268 662.155 363.382 665.572 345.701C667.006 338.285 664.741 335.939 662.781 335.228L662.725 335.299C662.725 335.299 656.668 344.73 652.883 357.79Z" fill="#BABABA" stroke="#263238" stroke-miterlimit="10" stroke-linecap="round" stroke-linejoin="round"/>
<path d="M543.842 687.891L543.464 687.6V637.105H551.037V605.182H523.019V637.105H530.59V688.468L463.575 708.929V714.008C463.575 717.215 466.287 719.813 469.634 719.813C472.98 719.813 475.692 717.215 475.692 714.008V713.283L531.727 707.04V714.734C531.727 717.539 534.1 719.813 537.026 719.813C539.954 719.813 542.327 717.539 542.327 714.734V706.788L600.634 713.284V714.01C600.634 717.216 603.346 719.815 606.691 719.815C610.037 719.815 612.749 717.216 612.749 714.01V708.931L543.842 687.891Z" fill="#263238" stroke="#263238" stroke-miterlimit="10"/>
<path d="M624.664 611.064H456.387C452.661 611.064 449.64 608.17 449.64 604.6V580.503C449.64 576.933 452.661 574.039 456.387 574.039H624.664C628.39 574.039 631.41 576.933 631.41 580.503V604.6C631.41 608.172 628.391 611.064 624.664 611.064Z" fill="#263238" stroke="#263238" stroke-miterlimit="10"/>
<path d="M375.828 717.204H368.28L363.369 506.332H382.428L375.828 717.204Z" fill="#263238" stroke="#263238" stroke-miterlimit="10"/>
<path d="M749.062 717.204H741.514L736.603 506.332H755.662L749.062 717.204Z" fill="#263238" stroke="#263238" stroke-miterlimit="10"/>
<path d="M324.526 473.714L331.02 724.661H338.836L345.33 516.584H786.167L791.821 724.661H803.65L806.185 473.714H324.526Z" fill="white" stroke="#263238" stroke-miterlimit="10" stroke-linecap="round" stroke-linejoin="round"/>
<path d="M805.827 479.739H324.742V486.681H805.827V479.739Z" fill="#757575" stroke="#263238" stroke-miterlimit="10"/>
<path d="M809.568 469.6H314.38V480.571H809.568V469.6Z" fill="white" stroke="#263238" stroke-miterlimit="10" stroke-linecap="round" stroke-linejoin="round"/>
<path d="M373.315 77.7924C373.274 77.506 373.291 77.2047 373.369 76.9082C373.684 75.7145 374.904 74.997 376.097 75.3125C376.739 75.4805 377.375 75.6559 378.005 75.8388C379.189 76.1822 379.876 77.4196 379.54 78.6095C379.198 79.8004 377.96 80.4872 376.776 80.1438C376.174 79.9703 375.572 79.8032 374.966 79.6501C374.062 79.4065 373.437 78.6583 373.315 77.7924ZM395.765 86.9007C395.698 86.432 395.775 85.943 396.025 85.5025C396.628 84.4207 397.988 84.0352 399.069 84.6323C406.206 88.6008 413.291 93.5994 420.118 99.5044C421.05 100.315 421.158 101.728 420.347 102.66C419.536 103.592 418.123 103.699 417.192 102.888C410.599 97.1888 403.771 92.3597 396.895 88.5468C396.26 88.1919 395.86 87.5713 395.765 86.9007ZM432.296 117.282C432.194 116.566 432.445 115.806 433.023 115.293C433.949 114.471 435.363 114.556 436.185 115.482C441.465 121.434 446.805 128.181 452.067 135.549C452.788 136.556 452.554 137.951 451.547 138.671C450.54 139.392 449.146 139.158 448.425 138.151C443.255 130.915 438.011 124.288 432.841 118.453C432.532 118.105 432.355 117.698 432.296 117.282ZM460.423 155.788C460.303 154.942 460.677 154.065 461.445 153.578C462.487 152.919 463.873 153.234 464.532 154.276C467.746 159.378 470.953 164.615 474.063 169.686L477.863 175.881C478.511 176.938 478.182 178.313 477.131 178.96C476.081 179.607 474.699 179.278 474.052 178.228L470.243 172.021C467.149 166.967 463.943 161.737 460.746 156.659C460.574 156.384 460.466 156.088 460.423 155.788ZM485.71 196.271C485.592 195.445 485.947 194.577 486.695 194.086C487.727 193.408 489.115 193.69 489.793 194.723C494.945 202.532 499.74 209.224 504.448 215.17C505.216 216.137 505.051 217.548 504.077 218.311C503.11 219.079 501.698 218.914 500.936 217.94C496.152 211.884 491.285 205.097 486.057 197.178C485.866 196.907 485.755 196.59 485.71 196.271ZM515.304 233.606C515.209 232.936 515.421 232.229 515.932 231.711C516.804 230.837 518.218 230.829 519.098 231.7C521.611 234.2 524.196 236.596 526.776 238.82C530.392 241.933 534.251 244.892 538.254 247.598C539.276 248.29 539.546 249.679 538.855 250.707C538.163 251.728 536.773 251.999 535.746 251.308C531.596 248.503 527.596 245.444 523.85 242.21C521.186 239.911 518.525 237.446 515.936 234.878C515.581 234.524 515.371 234.075 515.304 233.606ZM554.287 260.671C554.229 260.261 554.282 259.835 554.464 259.438C554.975 258.309 556.3 257.816 557.428 258.327C564.902 261.716 572.818 264.478 580.959 266.538C582.158 266.839 582.882 268.058 582.58 269.256C582.279 270.455 581.06 271.179 579.862 270.877C571.459 268.755 563.291 265.903 555.575 262.401C554.858 262.071 554.392 261.407 554.287 260.671ZM600.226 272.863C600.201 272.688 600.195 272.509 600.216 272.327C600.333 271.095 601.435 270.201 602.661 270.32C610.918 271.134 619.312 271.272 627.621 270.718C628.858 270.635 629.921 271.574 630.002 272.804C630.085 274.041 629.153 275.103 627.916 275.185C619.37 275.753 610.723 275.611 602.223 274.772C601.172 274.668 600.367 273.859 600.226 272.863ZM647.684 270.163C647.521 269.011 648.275 267.914 649.429 267.664C657.624 265.891 665.642 263.426 673.257 260.32C674.4 259.853 675.707 260.404 676.174 261.547C676.642 262.689 676.09 263.996 674.947 264.463C667.093 267.663 658.821 270.211 650.374 272.033C649.168 272.29 647.977 271.523 647.713 270.318C647.706 270.266 647.692 270.215 647.684 270.163ZM691.838 252.637C691.716 251.778 692.102 250.893 692.885 250.417C700.027 246.037 706.701 240.98 712.71 235.399C713.614 234.56 715.029 234.612 715.874 235.515C716.713 236.418 716.661 237.834 715.758 238.679C709.533 244.463 702.625 249.7 695.226 254.236C694.176 254.883 692.794 254.554 692.146 253.497C691.981 253.222 691.88 252.93 691.838 252.637Z" fill="black"/>
</svg>
