<svg width="210" height="241" viewBox="0 0 210 241" fill="none" xmlns="http://www.w3.org/2000/svg">
<path d="M106.969 104.054C116.421 104.054 124.082 84.8002 124.082 61.0492C124.082 37.2982 116.421 18.0442 106.969 18.0442C97.5182 18.0442 89.8564 37.2982 89.8564 61.0492C89.8564 84.8002 97.5182 104.054 106.969 104.054Z" fill="#92E3A9" stroke="#263238" stroke-miterlimit="10"/>
<path d="M53.7991 34.529C59.1492 50.6615 69.426 61.9299 76.7546 59.6998C84.0832 57.4697 85.6872 42.5831 80.3371 26.4522C74.987 10.3197 64.7101 -0.948686 57.3815 1.28139C50.0529 3.50986 48.449 18.3964 53.7991 34.529Z" fill="#92E3A9" stroke="#263238" stroke-miterlimit="10"/>
<path d="M179.365 131.802C196.783 128.976 209.863 120.796 208.578 113.532C207.294 106.268 192.131 102.672 174.713 105.5C157.295 108.327 144.215 116.507 145.5 123.771C146.785 131.033 161.946 134.629 179.365 131.802Z" fill="#92E3A9" stroke="#263238" stroke-miterlimit="10"/>
<path d="M37.6881 92.044C52.2373 105.867 69.4261 111.863 76.0817 105.433C82.7373 99.0025 76.338 82.584 61.7889 68.7607C47.2397 54.9358 30.0509 48.9421 23.3953 55.3722C16.7414 61.8006 23.1389 78.2192 37.6881 92.044Z" fill="#92E3A9" stroke="#263238" stroke-miterlimit="10"/>
<path d="M137.938 54.1244C123.87 73.6813 119.679 94.2966 128.576 100.172C137.473 106.048 156.09 94.9576 170.159 75.4007C184.227 55.8439 188.419 35.2285 179.522 29.3528C170.624 23.4786 152.007 34.5692 137.938 54.1244Z" fill="#92E3A9" stroke="#263238" stroke-miterlimit="10"/>
<path d="M105.769 101.91L104.445 232.736" stroke="#263238" stroke-miterlimit="10" stroke-linecap="round"/>
<path d="M107.364 45.0588L105.769 101.91" stroke="#263238" stroke-miterlimit="10" stroke-linecap="round"/>
<path d="M107.25 35.7847L107.364 40.1398" stroke="#263238" stroke-miterlimit="10" stroke-linecap="round"/>
<path d="M128.64 97.3801C120.061 114.641 113.087 135.607 111.738 159.425V240.341" stroke="#263238" stroke-miterlimit="10" stroke-linecap="round"/>
<path d="M158.035 54.2927C150.057 63.1161 138.326 77.8863 128.64 97.3818" stroke="#263238" stroke-miterlimit="10" stroke-linecap="round"/>
<path d="M167.285 44.9231C167.285 44.9231 165.51 46.4761 162.594 49.4463" stroke="#263238" stroke-miterlimit="10" stroke-linecap="round"/>
<path d="M75.0171 103.451C85.0005 116.672 95.0277 133.978 102.759 156.201" stroke="#263238" stroke-miterlimit="10" stroke-linecap="round"/>
<path d="M55.3303 81.7759C61.372 87.267 68.1861 94.4033 75.0171 103.451" stroke="#263238" stroke-miterlimit="10" stroke-linecap="round"/>
<path d="M34.3096 66.4255C34.3096 66.4255 40.4136 69.4232 49.3007 76.6031" stroke="#263238" stroke-miterlimit="10" stroke-linecap="round"/>
<path d="M75.7393 55.7019C85.2183 84.2857 97.9459 126.525 103.883 163.188" stroke="#263238" stroke-miterlimit="10" stroke-linecap="round"/>
<path d="M69.9624 38.7451C71.6491 43.5656 73.6123 49.2895 75.7375 55.7002" stroke="#263238" stroke-miterlimit="10" stroke-linecap="round"/>
<path d="M64.0454 22.3442C64.0454 22.3442 65.7035 26.7187 68.3684 34.2251" stroke="#263238" stroke-miterlimit="10" stroke-linecap="round"/>
<path d="M146.377 119.809C134.533 124.112 118.336 136.116 112.716 151.838" stroke="#263238" stroke-miterlimit="10" stroke-linecap="round"/>
<path d="M168.256 115.547C161.881 115.906 154.07 117.014 146.377 119.809" stroke="#263238" stroke-miterlimit="10" stroke-linecap="round"/>
<path d="M182.434 115.882C182.434 115.882 180.326 115.592 176.848 115.463" stroke="#263238" stroke-miterlimit="10" stroke-linecap="round"/>
<path d="M145.196 194.686C161.204 201.848 176.818 202.242 180.071 195.567C183.325 188.893 172.986 177.674 156.978 170.514C140.969 163.353 125.356 162.959 122.102 169.633C118.849 176.309 129.188 187.526 145.196 194.686Z" fill="#92E3A9" stroke="#263238" stroke-miterlimit="10"/>
<path d="M145.702 175.263C140.244 172.086 133.16 168.744 125.172 166.854C125.172 166.854 119.822 163.433 114.156 167.051C111.991 168.434 112.712 178.806 112.712 178.806V232.738" stroke="#263238" stroke-miterlimit="10" stroke-linecap="round"/>
<path d="M157.168 183.261C157.168 183.261 155.605 181.876 152.822 179.874" stroke="#263238" stroke-miterlimit="10" stroke-linecap="round"/>
<path d="M30.3002 131.802C12.882 128.976 -0.19808 120.796 1.08716 113.532C2.37071 106.268 17.5339 102.672 34.9521 105.5C52.3703 108.327 65.4504 116.507 64.1651 123.771C62.8799 131.033 47.7185 134.629 30.3002 131.802Z" fill="#92E3A9" stroke="#263238" stroke-miterlimit="10"/>
<path d="M62.9119 119.674C64.9983 120.418 67.078 121.284 69.1189 122.291C83.5129 129.393 92.3138 143.859 92.3138 159.371V230.663" stroke="#263238" stroke-miterlimit="10" stroke-linecap="round"/>
<path d="M39.5752 115.461C46.1515 115.701 54.5865 116.709 62.9119 119.674" stroke="#263238" stroke-miterlimit="10" stroke-linecap="round"/>
<path d="M27.2307 115.882C27.2307 115.882 28.6206 115.691 31.0021 115.55" stroke="#263238" stroke-miterlimit="10" stroke-linecap="round"/>
<path d="M47.7878 180.636C32.4813 189.09 16.9606 190.767 13.1218 184.384C9.28293 178.001 18.5781 165.975 33.8846 157.523C49.1911 149.071 64.7118 147.392 68.5507 153.775C72.3895 160.159 63.0943 172.185 47.7878 180.636Z" fill="#92E3A9" stroke="#263238" stroke-miterlimit="10"/>
<path d="M44.072 162.38C49.3007 158.55 56.4724 154.179 64.8619 151.382C64.8619 151.382 83.8487 148.381 88.18 160.136" stroke="#263238" stroke-miterlimit="10" stroke-linecap="round"/>
<path d="M34.8357 170.239C34.8357 170.239 35.7803 169.245 37.5226 167.681" stroke="#263238" stroke-miterlimit="10" stroke-linecap="round"/>
<path d="M85.2924 160.827C85.2924 160.827 107.664 156.679 107.664 171.199C107.664 185.719 91.7878 197.473 85.2924 214.068C78.7971 230.663 66.5282 231.354 60.0329 214.76C53.5375 198.165 62.9205 167.741 85.2924 160.827Z" fill="#92E3A9" stroke="#263238" stroke-miterlimit="10"/>
<path d="M100.447 161.519C100.447 161.519 80.9627 169.126 75.1892 193.325L100.447 161.519Z" fill="#92E3A9"/>
<path d="M100.447 161.519C100.447 161.519 80.9627 169.126 75.1892 193.325" stroke="#263238" stroke-miterlimit="10"/>
<path d="M99.0034 193.325V232.736" stroke="#263238" stroke-miterlimit="10" stroke-linecap="round"/>
</svg>
